<?xml version="1.0" standalone="no"?><!DOCTYPE svg PUBLIC "-//W3C//DTD SVG 1.1//EN" "http://www.w3.org/Graphics/SVG/1.1/DTD/svg11.dtd"><svg t="1679128697691" class="icon" viewBox="0 0 1024 1024" version="1.1" xmlns="http://www.w3.org/2000/svg" p-id="11759" xmlns:xlink="http://www.w3.org/1999/xlink" width="16" height="16"><path d="M279.162466 383.152659L511.998194 100.286546l232.83934 282.866113h-104.836405v564.0398H384.000677V383.152659h-104.838211z m552.438473 76.793091c30.293859 0 46.923693-35.226636 27.674846-58.617137C752.746955 271.900573 646.203676 142.485177 539.674846 13.057137c-14.339551-17.408312-41.010141-17.408312-55.349692 0-106.52883 129.42804-213.072109 258.843436-319.602745 388.271476-19.247041 23.390501-2.619014 58.617137 27.673039 58.617137h114.799495v528.204469c0 19.803355 16.044619 35.849781 35.84978 35.849781h337.910554c19.790712 0 35.835331-16.046425 35.835331-35.849781V459.94575h114.810331z" fill="#707070" p-id="11760"></path></svg>